<svg width="256" height="256" viewBox="0 0 256 256" fill="none" xmlns="http://www.w3.org/2000/svg">
<rect width="256" height="256" fill="white"/>
<path d="M143.323 180.19C143.546 180.398 143.658 180.661 143.658 180.98C143.658 181.299 143.546 181.57 143.323 181.793C143.116 182.001 142.852 182.104 142.533 182.104C142.214 182.104 141.943 182.001 141.72 181.793C141.496 181.57 141.385 181.299 141.385 180.98C141.385 180.661 141.496 180.398 141.72 180.19C141.943 179.967 142.214 179.855 142.533 179.855C142.852 179.855 143.116 179.967 143.323 180.19Z" fill="url(#paint0_linear)"/>
<path d="M158.058 182.104C156.99 182.104 156.136 181.905 155.498 181.506C154.86 181.107 154.461 180.733 154.302 180.382H154.254C154.286 181.163 154.302 181.578 154.302 181.626C154.302 181.833 154.19 181.937 153.967 181.937H153.153C152.946 181.937 152.842 181.833 152.842 181.626V178.037C152.842 177.829 152.946 177.726 153.153 177.726H154.087C154.31 177.726 154.422 177.829 154.422 178.037V178.515C154.581 178.994 154.916 179.432 155.426 179.831C156.033 180.31 156.79 180.549 157.7 180.549C159.486 180.549 160.379 179.927 160.379 178.683C160.379 178.252 160.132 177.909 159.638 177.654C159.143 177.383 158.537 177.159 157.819 176.984C157.117 176.808 156.415 176.609 155.714 176.386C155.012 176.162 154.414 175.803 153.919 175.309C153.425 174.799 153.177 174.16 153.177 173.395C153.177 172.358 153.552 171.536 154.302 170.93C155.052 170.308 156.009 169.997 157.173 169.997C158.752 169.997 159.885 170.46 160.571 171.385H160.619C160.587 170.811 160.571 170.515 160.571 170.5C160.571 170.292 160.675 170.188 160.882 170.188H161.648C161.855 170.188 161.959 170.292 161.959 170.5V173.825C161.959 174.033 161.855 174.137 161.648 174.137H160.714C160.491 174.137 160.379 174.033 160.379 173.825V173.49C160.379 173.06 160.124 172.637 159.614 172.222C159.119 171.792 158.473 171.576 157.676 171.576C156.878 171.576 156.256 171.744 155.809 172.079C155.363 172.414 155.139 172.852 155.139 173.395C155.139 173.921 155.387 174.336 155.881 174.639C156.392 174.926 157.006 175.157 157.724 175.333C158.441 175.492 159.159 175.676 159.877 175.883C160.595 176.091 161.201 176.434 161.695 176.912C162.206 177.391 162.461 178.053 162.461 178.898C162.461 179.744 162.094 180.493 161.36 181.147C160.643 181.785 159.542 182.104 158.058 182.104Z" fill="url(#paint1_linear)"/>
<path d="M169.317 187.321H164.507C164.3 187.321 164.196 187.225 164.196 187.033V186.005C164.196 185.813 164.3 185.717 164.507 185.717H165.847V171.768H164.555C164.348 171.768 164.244 171.672 164.244 171.481V170.452C164.244 170.26 164.348 170.165 164.555 170.165H167.355C167.562 170.165 167.666 170.26 167.666 170.452L167.642 172.342H167.666C167.969 171.688 168.455 171.138 169.125 170.691C169.811 170.228 170.649 169.997 171.638 169.997C173.249 169.997 174.549 170.547 175.538 171.648C176.527 172.733 177.021 174.184 177.021 176.003C177.021 177.805 176.535 179.273 175.562 180.406C174.589 181.538 173.289 182.104 171.662 182.104C170.673 182.104 169.843 181.881 169.173 181.434C168.519 180.972 168.049 180.414 167.761 179.759H167.69C167.738 180.27 167.761 180.637 167.761 180.86V185.717H169.317C169.524 185.717 169.628 185.813 169.628 186.005V187.033C169.628 187.225 169.524 187.321 169.317 187.321ZM167.714 176.099C167.714 177.486 168.073 178.555 168.79 179.305C169.524 180.055 170.401 180.429 171.422 180.429C172.459 180.429 173.321 180.031 174.007 179.233C174.708 178.42 175.059 177.359 175.059 176.051C175.059 174.727 174.708 173.666 174.007 172.868C173.321 172.071 172.459 171.672 171.422 171.672C170.386 171.672 169.508 172.063 168.79 172.844C168.073 173.626 167.714 174.711 167.714 176.099Z" fill="url(#paint2_linear)"/>
<path d="M190.455 181.937H188.374C187.688 181.937 187.345 181.602 187.345 180.932V179.712H187.297C186.132 181.323 184.577 182.128 182.631 182.128C181.483 182.128 180.541 181.833 179.808 181.243C179.074 180.637 178.707 179.823 178.707 178.802C178.707 177.494 179.273 176.537 180.406 175.931C181.554 175.309 183.126 174.998 185.12 174.998H187.129V174.711C187.129 172.717 186.093 171.72 184.019 171.72C183.046 171.72 182.344 171.816 181.913 172.007C181.483 172.182 181.172 172.326 180.98 172.438C180.805 172.549 180.669 172.637 180.573 172.701C180.334 172.892 180.159 172.908 180.047 172.749L179.377 171.911C179.265 171.784 179.281 171.656 179.425 171.528C179.696 171.177 180.254 170.835 181.1 170.5C181.945 170.165 182.942 169.997 184.091 169.997C187.441 169.997 189.115 171.592 189.115 174.783V180.334H190.455C190.647 180.334 190.743 180.429 190.743 180.621V181.65C190.743 181.841 190.647 181.937 190.455 181.937ZM187.129 176.434H185.239C184.314 176.434 183.548 176.481 182.942 176.577C182.336 176.673 181.818 176.88 181.387 177.199C180.972 177.518 180.765 177.957 180.765 178.515C180.765 179.074 180.988 179.536 181.435 179.903C181.897 180.254 182.495 180.429 183.229 180.429C184.777 180.429 186.077 179.744 187.129 178.372V176.434Z" fill="url(#paint3_linear)"/>
<path d="M202.96 179.161C203.056 179.241 203.104 179.321 203.104 179.401C203.104 179.464 203.064 179.56 202.984 179.688C202.92 179.799 202.769 179.975 202.53 180.214C202.306 180.453 201.987 180.725 201.572 181.028C201.174 181.331 200.647 181.586 199.993 181.793C199.355 182.001 198.669 182.104 197.936 182.104C196.261 182.104 194.857 181.554 193.724 180.453C192.608 179.353 192.049 177.877 192.049 176.027C192.049 174.16 192.608 172.693 193.724 171.624C194.857 170.539 196.237 169.997 197.864 169.997C199.491 169.997 200.719 170.587 201.549 171.768H201.572L201.549 170.452C201.549 170.244 201.652 170.141 201.86 170.141H202.769C202.96 170.141 203.056 170.244 203.056 170.452V174.519C203.056 174.711 202.96 174.806 202.769 174.806H201.668C201.477 174.806 201.381 174.711 201.381 174.519V174.113C201.365 173.538 201.038 172.988 200.4 172.462C199.762 171.935 198.948 171.672 197.959 171.672C196.986 171.672 196.093 172.063 195.28 172.844C194.466 173.626 194.059 174.695 194.059 176.051C194.059 177.391 194.458 178.459 195.256 179.257C196.053 180.039 196.947 180.429 197.936 180.429C198.925 180.429 199.762 180.222 200.448 179.807C201.15 179.377 201.62 178.962 201.86 178.563C201.971 178.372 202.107 178.348 202.266 178.491L202.96 179.161Z" fill="url(#paint4_linear)"/>
<path d="M215.596 176.29H206.982C207.045 177.614 207.46 178.635 208.226 179.353C209.007 180.071 209.885 180.429 210.858 180.429C211.831 180.429 212.66 180.222 213.346 179.807C214.048 179.393 214.519 178.986 214.758 178.587C214.886 178.428 215.029 178.404 215.189 178.515L215.835 179.161C215.93 179.257 215.978 179.345 215.978 179.425C215.978 179.488 215.938 179.576 215.859 179.688C215.795 179.799 215.651 179.975 215.428 180.214C215.205 180.453 214.886 180.725 214.471 181.028C214.072 181.331 213.546 181.586 212.892 181.793C212.254 182.001 211.568 182.104 210.834 182.104C209.159 182.104 207.755 181.554 206.623 180.453C205.506 179.353 204.948 177.877 204.948 176.027C204.948 174.16 205.506 172.693 206.623 171.624C207.739 170.539 209.103 169.997 210.714 169.997C212.341 169.997 213.617 170.523 214.543 171.576C215.468 172.613 215.93 174.017 215.93 175.788C215.93 175.851 215.93 175.915 215.93 175.979C215.93 176.186 215.819 176.29 215.596 176.29ZM213.945 174.83C213.897 173.841 213.586 173.052 213.011 172.462C212.437 171.871 211.671 171.576 210.714 171.576C209.757 171.576 208.936 171.847 208.25 172.39C207.564 172.932 207.157 173.746 207.029 174.83H213.945Z" fill="url(#paint5_linear)"/>
<path d="M232.864 75.7586C163.574 57.3144 74.3442 138.568 84.314 96.6951C23.9968 101.182 42.42 156.613 22.9998 186.922C36.4381 172.066 177.033 147.541 177.033 147.541C213.17 140.175 228.876 138.568 232.864 75.7586Z" fill="url(#paint6_linear)"/>
<g style="mix-blend-mode:color-burn" filter="url(#filter0_i)">
<path d="M232.864 75.7586C163.574 57.3144 74.3442 138.568 84.314 96.6951C23.9968 101.182 42.42 156.613 22.9998 186.922C36.4381 172.066 177.033 147.541 177.033 147.541C213.17 140.175 228.876 138.568 232.864 75.7586Z" fill="white"/>
</g>
<mask id="mask0" mask-type="alpha" maskUnits="userSpaceOnUse" x="23" y="59" width="210" height="144">
<path d="M232.864 75.7586C163.574 57.3144 74.3442 138.568 84.314 96.6951C23.9968 101.182 42.42 156.613 22.9998 186.922C36.4381 172.066 177.033 147.541 177.033 147.541C213.17 140.175 228.876 138.568 232.864 75.7586Z" fill="url(#paint7_linear)"/>
</mask>
<g mask="url(#mask0)">
<g style="mix-blend-mode:color-burn" opacity="0.25">
<path d="M97.2759 163.493C97.2759 163.493 95.7804 160.502 98.7714 150.034C101.762 139.565 92.291 164.49 92.291 164.49L97.2759 163.493Z" fill="black" fill-opacity="0.5"/>
</g>
<g style="mix-blend-mode:color-burn" opacity="0.25">
<path d="M221.897 126.106L209.933 130.592C209.933 130.592 217.909 129.097 217.909 131.091C219.405 129.097 221.897 126.106 221.897 126.106Z" fill="black" fill-opacity="0.5"/>
</g>
<path fill-rule="evenodd" clip-rule="evenodd" d="M195.047 108.826C198.81 105.06 204.428 103.168 212.67 105.053L215.18 105.626L214.524 108.117C213.964 110.244 212.965 113.74 211.94 117.039C211.026 119.979 210.024 122.984 209.272 124.65C209.267 124.75 209.268 124.86 209.276 124.976C209.293 125.221 209.339 125.419 209.395 125.556C209.421 125.62 209.445 125.659 209.46 125.681C209.468 125.691 209.473 125.698 209.476 125.701C209.479 125.704 209.481 125.705 209.481 125.706C209.482 125.706 209.483 125.707 209.487 125.709C209.49 125.711 209.498 125.716 209.512 125.721C209.539 125.732 209.601 125.752 209.715 125.765C209.701 125.763 209.706 125.763 209.733 125.76C209.801 125.754 210.014 125.734 210.423 125.648C210.948 125.538 211.624 125.356 212.42 125.11C214.01 124.62 215.944 123.916 217.877 123.146C219.806 122.376 221.693 121.557 223.183 120.844C223.93 120.486 224.554 120.167 225.024 119.902C225.42 119.68 225.608 119.55 225.665 119.511C225.685 119.497 225.689 119.494 225.68 119.502L229.081 123.147C228.635 123.563 228.004 123.945 227.468 124.247C226.868 124.584 226.138 124.956 225.335 125.34C223.725 126.11 221.734 126.974 219.723 127.776C217.715 128.577 215.648 129.331 213.89 129.873C213.014 130.144 212.18 130.372 211.449 130.526C210.793 130.664 209.969 130.8 209.229 130.726C207.744 130.577 206.628 129.952 205.842 129.111C205.221 129.65 204.554 130.148 203.856 130.594C201.614 132.025 198.848 133.045 195.965 133.045C193.307 133.045 190.49 132.316 189.006 129.681C187.653 127.28 187.923 124.102 188.962 120.614C189.95 117.293 191.497 112.379 195.047 108.826ZM198.574 112.349C196.023 114.902 194.751 118.638 193.739 122.036C192.778 125.265 193.049 126.702 193.349 127.235C193.518 127.534 194.008 128.06 195.965 128.06C197.696 128.06 199.544 127.432 201.174 126.392C202.817 125.343 204.03 124.009 204.611 122.847C205.161 121.747 206.146 118.884 207.18 115.558C207.832 113.459 208.473 111.282 208.99 109.452C203.706 108.791 200.603 110.318 198.574 112.349Z" fill="white"/>
<path fill-rule="evenodd" clip-rule="evenodd" d="M74.5716 132.081C78.3339 128.315 83.9521 126.424 92.194 128.308L94.7041 128.882L94.0488 131.372C93.4889 133.5 92.4897 136.996 91.4643 140.294C90.55 143.235 89.5483 146.24 88.796 147.906C88.7916 148.005 88.792 148.116 88.8001 148.232C88.8172 148.477 88.8637 148.675 88.9195 148.811C88.9457 148.876 88.9694 148.915 88.9846 148.936C88.992 148.947 88.9975 148.953 89.0005 148.956C89.0035 148.96 89.0052 148.961 89.0057 148.961C89.0062 148.962 89.0076 148.963 89.011 148.965C89.0144 148.967 89.0225 148.971 89.0368 148.977C89.0642 148.988 89.1298 149.009 89.2498 149.021C89.4097 149.037 89.7629 149.012 90.3448 148.807C90.9053 148.611 91.5425 148.297 92.2128 147.896C93.5588 147.091 94.8201 146.067 95.5407 145.395L98.9419 149.039C98.0145 149.905 96.4744 151.155 94.7718 152.174C93.9178 152.685 92.9689 153.17 91.9948 153.511C91.0422 153.846 89.9123 154.097 88.7538 153.981C87.2686 153.833 86.1527 153.207 85.3659 152.366C84.7457 152.906 84.0783 153.404 83.3805 153.849C81.1379 155.281 78.372 156.301 75.489 156.301C72.8318 156.301 70.0149 155.572 68.5303 152.937C67.1771 150.535 67.4477 147.357 68.486 143.869C69.4743 140.549 71.0216 135.634 74.5716 132.081ZM78.098 135.605C75.5473 138.158 74.2752 141.893 73.2638 145.291C72.3024 148.521 72.573 149.957 72.8733 150.49C73.0422 150.79 73.5322 151.316 75.489 151.316C77.2202 151.316 79.0684 150.688 80.6984 149.648C82.3415 148.599 83.5549 147.264 84.1359 146.102C84.6859 145.002 85.6703 142.139 86.7041 138.814C87.3568 136.715 87.9974 134.538 88.5141 132.708C83.2304 132.047 80.1274 133.573 78.098 135.605Z" fill="white"/>
<path fill-rule="evenodd" clip-rule="evenodd" d="M99.4425 130.678C98.7456 130.103 97.8102 129.611 97.3138 129.404L99.2311 124.802C100.053 125.145 101.445 125.868 102.615 126.832C103.197 127.313 103.85 127.955 104.316 128.754C104.796 129.577 105.172 130.75 104.797 132.064C104.517 133.044 102.019 140.247 99.168 148.471C96.4494 156.312 93.4089 165.082 91.6617 170.27L86.9375 168.679C88.7809 163.205 91.9398 154.098 94.6924 146.163C97.1659 139.032 99.3114 132.847 99.8797 131.093C99.7871 130.987 99.6463 130.846 99.4425 130.678Z" fill="white"/>
<path fill-rule="evenodd" clip-rule="evenodd" d="M108.591 127.889C106.912 128.981 105.62 130.688 105.078 132.214C104.758 133.113 104.485 133.868 104.24 134.544C103.354 136.993 102.841 138.411 101.83 141.951C101.294 143.829 101.533 145.193 101.948 145.9C102.261 146.433 102.808 146.868 104.055 146.705C110.175 145.907 113.641 140.527 115.196 135.864C116.004 133.439 116.408 131.439 116.203 129.947C116.109 129.258 115.892 128.743 115.566 128.336C115.241 127.928 114.694 127.487 113.719 127.122C112 126.477 110.227 126.825 108.591 127.889ZM105.874 123.71C108.486 122.012 111.915 121.121 115.469 122.454C117.131 123.077 118.479 123.995 119.461 125.225C120.444 126.456 120.948 127.857 121.142 129.269C121.514 131.979 120.764 134.922 119.925 137.441C118.183 142.666 113.74 150.469 104.699 151.648C101.648 152.046 99.0636 150.833 97.6494 148.424C96.3379 146.19 96.2548 143.319 97.0367 140.582C98.0976 136.869 98.6649 135.301 99.5659 132.811C99.808 132.142 100.074 131.406 100.381 130.545C101.301 127.957 103.305 125.38 105.874 123.71Z" fill="white"/>
<path fill-rule="evenodd" clip-rule="evenodd" d="M168.214 113.191C170.342 113.917 171.962 115.084 172.697 116.186L168.549 118.952C168.564 118.974 168.556 118.967 168.52 118.936C168.379 118.814 167.805 118.319 166.605 117.91C165.225 117.439 163.118 117.13 160.236 117.706C157.775 118.198 156.429 119.973 156.312 121.115C156.265 121.572 156.381 122.034 156.899 122.51C157.485 123.049 158.713 123.703 161.045 123.995C164.002 124.364 166.396 125.374 167.815 127.209C169.314 129.146 169.307 131.444 168.59 133.358C167.238 136.962 163.153 140.076 158.654 140.485C154.554 140.858 151.332 140.011 149.105 139.033C147.996 138.547 147.139 138.03 146.543 137.62C146.244 137.415 146.01 137.236 145.841 137.1C145.757 137.032 145.689 136.974 145.637 136.93C145.611 136.907 145.589 136.888 145.571 136.872L145.548 136.851L145.538 136.842L145.534 136.838L145.532 136.836C145.531 136.836 145.53 136.835 147.223 135.005C148.915 133.175 148.914 133.174 148.913 133.173L148.912 133.172L148.908 133.169L148.903 133.164L148.897 133.159C148.895 133.156 148.896 133.158 148.901 133.162C148.91 133.17 148.934 133.191 148.972 133.221C149.048 133.282 149.18 133.384 149.365 133.512C149.737 133.767 150.322 134.124 151.108 134.469C152.671 135.155 155.052 135.807 158.203 135.521C160.954 135.271 163.296 133.276 163.922 131.607C164.193 130.885 164.063 130.505 163.873 130.259C163.603 129.91 162.742 129.23 160.426 128.941C157.485 128.573 155.135 127.66 153.524 126.179C151.845 124.635 151.146 122.623 151.353 120.608C151.742 116.803 155.175 113.635 159.258 112.818C162.967 112.076 165.968 112.426 168.214 113.191Z" fill="white"/>
<mask id="mask1" mask-type="alpha" maskUnits="userSpaceOnUse" x="143" y="70" width="75" height="75">
<path d="M145.629 114.332L143.137 97.3835L152.11 82.9273L208.439 70.4651L217.412 89.9062L215.418 99.876C215.418 99.876 210.433 91.9001 171.551 100.873C191.49 98.3805 188.998 108.35 188.998 110.843C188.998 113.335 191.989 136.266 191.989 136.266L171.052 144.74L145.629 114.332Z" fill="#C4C4C4"/>
</mask>
<g mask="url(#mask1)">
<path fill-rule="evenodd" clip-rule="evenodd" d="M175.374 126.936C175.126 128.424 174.884 129.909 175.172 130.977C175.287 131.401 175.438 131.555 175.581 131.645C175.765 131.76 176.314 131.996 177.626 131.865C179.533 131.675 181.928 130.605 184.125 129.125C186.366 127.615 187.875 126.036 188.302 125.248L192.685 127.622C191.683 129.472 189.375 131.598 186.91 133.259C184.401 134.95 181.2 136.518 178.122 136.825C176.14 137.024 174.367 136.766 172.938 135.871C171.468 134.952 170.712 133.582 170.36 132.276C169.769 130.088 170.206 127.567 170.423 126.313C170.441 126.208 170.458 126.112 170.472 126.026L170.487 125.939L170.507 125.854C171.096 123.4 174.577 111.933 178.468 99.3616C167.524 101.509 157.259 104.647 149.235 108.258L147.189 103.712C156.199 99.6575 167.836 96.1928 180.138 93.9749C180.219 93.7153 180.3 93.4558 180.381 93.1964C184.985 78.3958 189.695 63.5217 190.647 60.939L195.324 62.6623C194.462 65.002 190.102 78.746 185.639 93.0739C195.85 91.5702 206.313 90.9694 215.947 91.6335L215.605 96.6066C205.588 95.9162 194.6 96.6547 183.993 98.3725C179.827 111.807 176.019 124.322 175.374 126.936Z" fill="white"/>
</g>
<mask id="mask2" mask-type="alpha" maskUnits="userSpaceOnUse" x="24" y="106" width="60" height="67">
<path d="M30.4795 130.284L47.4281 106.357H69.8601L83.3194 120.813L76.3405 128.29C76.3405 128.29 79.0966 129.531 63.8783 127.792C49.4221 125.798 44.9357 127.792 42.9417 127.792C40.9478 127.792 59.3919 125.299 52.9115 137.263C46.4311 149.227 69.8601 144.74 69.8601 144.74L73.8481 162.188L24.9961 172.656L30.4795 130.284Z" fill="#C4C4C4"/>
</mask>
<g mask="url(#mask2)">
<path fill-rule="evenodd" clip-rule="evenodd" d="M66.9476 111.75C68.682 111.791 71.2902 112.573 73.4003 114.281C75.7261 116.164 77.4931 119.23 76.8512 123.509C76.5527 125.499 75.1343 126.631 73.7208 127.194C72.4 127.721 70.7956 127.894 69.2229 127.941C66.7823 128.013 63.7081 127.781 60.5437 127.542C59.6152 127.472 58.6788 127.402 57.7485 127.338C56.3857 127.245 55.018 127.164 53.6654 127.114C50.8115 134.148 47.82 143.982 46.4665 148.855L46.4597 148.879L46.4523 148.904C46.0624 150.204 45.9858 151.972 46.6228 153.267C47.1227 154.283 48.3402 155.583 51.9749 155.583C55.6506 155.583 59.0852 154.092 61.9665 152.078C64.8502 150.061 66.9988 147.642 68.0479 146.116L72.1557 148.941C70.7879 150.93 68.2235 153.785 64.8232 156.163C61.4205 158.542 57.0002 160.568 51.9749 160.568C46.9087 160.568 43.677 158.571 42.1499 155.468C40.766 152.655 41.0762 149.495 41.6699 147.497C42.9013 143.067 45.5606 134.25 48.306 127.118C47.3465 127.166 46.4109 127.244 45.5075 127.359C41.7361 127.842 38.9656 128.931 37.3156 130.764L33.6104 127.429C36.4468 124.278 40.6613 122.954 44.8748 122.415C46.6623 122.186 48.5292 122.089 50.4086 122.075C50.629 121.597 50.8477 121.139 51.0639 120.707C55.0824 112.67 63.217 111.397 66.9476 111.75ZM55.9063 122.228C56.6438 122.269 57.3727 122.316 58.0889 122.365C59.1389 122.437 60.1537 122.513 61.1288 122.586C64.2255 122.819 66.9218 123.022 69.0756 122.958C70.4973 122.916 71.3879 122.758 71.8752 122.564C71.9051 122.552 71.931 122.541 71.9534 122.531C72.2073 120.362 71.3591 119.042 70.2639 118.156C68.9717 117.11 67.3815 116.733 66.806 116.733H66.6729L66.5405 116.719C64.1685 116.465 58.8118 117.276 55.9063 122.228Z" fill="white"/>
</g>
<path fill-rule="evenodd" clip-rule="evenodd" d="M140.025 135.936C140.633 136.989 141.687 137.346 142.392 137.183C144.084 136.79 144.889 136.453 145.534 136.075C146.064 135.764 146.498 135.429 147.192 134.894C147.515 134.645 147.894 134.353 148.365 133.999L151.356 137.987C151.06 138.209 150.771 138.432 150.487 138.651C149.663 139.286 148.875 139.893 148.058 140.373C146.828 141.096 145.498 141.579 143.519 142.038C141.188 142.58 138.909 141.829 137.238 140.31C136.289 141.321 135.123 142.365 133.84 143.266C132.503 144.203 130.947 145.052 129.304 145.497C127.651 145.945 125.75 146.023 123.938 145.17C121.333 143.944 120.995 141.147 121.08 139.237C121.172 137.15 121.797 134.691 122.539 132.316C123.213 130.162 124.042 127.897 124.806 125.812C124.897 125.565 124.987 125.319 125.075 125.077C125.93 122.739 126.643 120.735 127.017 119.239L131.853 120.448C131.403 122.249 130.589 124.512 129.757 126.789C129.668 127.033 129.578 127.277 129.488 127.523C128.719 129.625 127.932 131.772 127.297 133.804C126.576 136.109 126.122 138.051 126.06 139.457C126.026 140.225 126.111 140.571 126.165 140.704C126.588 140.87 127.174 140.909 128 140.686C128.907 140.44 129.935 139.916 130.976 139.185C132.005 138.463 132.958 137.602 133.71 136.783C134.455 135.973 134.886 135.333 135.047 135.007L142.113 116.318L146.776 118.081L140.025 135.936ZM126.207 140.775C126.206 140.777 126.196 140.767 126.181 140.739C126.201 140.759 126.209 140.773 126.207 140.775Z" fill="white"/>
</g>
<defs>
<filter id="filter0_i" x="23" y="59" width="210" height="143.348" filterUnits="userSpaceOnUse" color-interpolation-filters="sRGB">
<feFlood flood-opacity="0" result="BackgroundImageFix"/>
<feBlend mode="normal" in="SourceGraphic" in2="BackgroundImageFix" result="shape"/>
<feColorMatrix in="SourceAlpha" type="matrix" values="0 0 0 0 0 0 0 0 0 0 0 0 0 0 0 0 0 0 127 0" result="hardAlpha"/>
<feOffset dy="-2"/>
<feComposite in2="hardAlpha" operator="arithmetic" k2="-1" k3="1"/>
<feColorMatrix type="matrix" values="0 0 0 0 0 0 0 0 0 0 0 0 0 0 0 0 0 0 0.25 0"/>
<feBlend mode="normal" in2="shape" result="effect1_innerShadow"/>
</filter>
<linearGradient id="paint0_linear" x1="218.154" y1="170.74" x2="201.101" y2="210.786" gradientUnits="userSpaceOnUse">
<stop stop-color="#73D14F"/>
<stop offset="1" stop-color="#9B51E0"/>
</linearGradient>
<linearGradient id="paint1_linear" x1="218.154" y1="170.74" x2="201.101" y2="210.786" gradientUnits="userSpaceOnUse">
<stop stop-color="#73D14F"/>
<stop offset="1" stop-color="#9B51E0"/>
</linearGradient>
<linearGradient id="paint2_linear" x1="218.154" y1="170.74" x2="201.101" y2="210.786" gradientUnits="userSpaceOnUse">
<stop stop-color="#73D14F"/>
<stop offset="1" stop-color="#9B51E0"/>
</linearGradient>
<linearGradient id="paint3_linear" x1="218.154" y1="170.74" x2="201.101" y2="210.786" gradientUnits="userSpaceOnUse">
<stop stop-color="#73D14F"/>
<stop offset="1" stop-color="#9B51E0"/>
</linearGradient>
<linearGradient id="paint4_linear" x1="218.154" y1="170.74" x2="201.101" y2="210.786" gradientUnits="userSpaceOnUse">
<stop stop-color="#73D14F"/>
<stop offset="1" stop-color="#9B51E0"/>
</linearGradient>
<linearGradient id="paint5_linear" x1="218.154" y1="170.74" x2="201.101" y2="210.786" gradientUnits="userSpaceOnUse">
<stop stop-color="#73D14F"/>
<stop offset="1" stop-color="#9B51E0"/>
</linearGradient>
<linearGradient id="paint6_linear" x1="238.415" y1="80.3581" x2="54.577" y2="214.251" gradientUnits="userSpaceOnUse">
<stop stop-color="#73D14F"/>
<stop offset="1" stop-color="#9B51E0"/>
</linearGradient>
<linearGradient id="paint7_linear" x1="238.415" y1="80.3581" x2="54.577" y2="214.251" gradientUnits="userSpaceOnUse">
<stop stop-color="#73D14F"/>
<stop offset="1" stop-color="#9B51E0"/>
</linearGradient>
</defs>
</svg>
